<svg xmlns="http://www.w3.org/2000/svg" enable-background="new 0 0 100 100" viewBox="0 0 100 100"><path fill="#34a853" d="M41.0889893,62.7651367H23.9648438V50.9448242h17.0787964L41.0889893,62.7651367z M57.5774536,33.9550781h-14.598999  l0.0063477,1.6601563H57.583374L57.5774536,33.9550781z M23.9648438,64.7651367v1.659668h17.1381836l-0.0063477-1.659668H23.9648438  z M59.6922607,66.4248047h16.362915v-1.659668H59.6864014L59.6922607,66.4248047z M43.0966797,64.7651367l0.0064087,1.659668  h14.5891724l-0.0058594-1.659668H43.0966797z M18.3847656,66.4248047h3.5800781v-1.659668h-3.5800781V66.4248047z   M18.3847656,48.9448242h3.5800781V37.6152344h-3.5800781V48.9448242z M18.3847656,62.7651367h3.5800781V50.9448242h-3.5800781  V62.7651367z M18.3847656,35.6152344h3.5800781v-1.6601563h-3.5800781V35.6152344z M40.9783936,33.9550781H23.9648438v1.6601563  h17.0199585L40.9783936,33.9550781z M40.9924927,37.6152344H23.9648438v11.3295898h17.071106L40.9924927,37.6152344z   M49.3362427,62.7651367h-6.2471924l-0.0965576-25.1499023h6.4500732l-0.0075073,2.3662109  c-0.0019531,0.5527344,0.4443359,1.0014648,0.996582,1.003418c0.0014648,0,0.0024414,0,0.003418,0  c0.5507813,0,0.9980469-0.4458008,1-0.996582l0.0075684-2.3730469h6.1477661l0.0889282,25.1499023h-6.3430786l0.0089722-2.6967773  c0.0019531-0.5522461-0.4443359-1.0014648-0.996582-1.003418c-0.0014648,0-0.0024414,0-0.003418,0  c-0.5507813,0-0.9980469,0.4453125-1,0.996582L49.3362427,62.7651367z M49.4350586,47.5385742  c-0.003418,0.5522461,0.4414063,1.0029297,0.9936523,1.0063477c0.0019531,0,0.0043945,0,0.0063477,0  c0.5493164,0,0.996582-0.4433594,1-0.9936523l0.0200195-3.0800781c0.003418-0.5522461-0.4414063-1.0029297-0.9936523-1.0063477  c-0.0019531,0-0.0043945,0-0.0063477,0c-0.5493164,0-0.996582,0.4433594-1,0.9936523L49.4350586,47.5385742z M49.4350586,54.918457  c-0.003418,0.5522461,0.4414063,1.0029297,0.9936523,1.0063477c0.0019531,0,0.0043945,0,0.0063477,0  c0.5493164,0,0.996582-0.4433594,1-0.9936523l0.0200195-3.0698242c0.003418-0.5522461-0.4414063-1.0029297-0.9936523-1.0063477  c-0.5258789-0.0336914-1.0029297,0.4418945-1.0063477,0.9936523L49.4350586,54.918457z M81.6347656,51.2851563h-3.5795898  v11.4799805h3.5795898V51.2851563z M81.6347656,64.7651367h-3.5795898v1.659668h3.5795898V64.7651367z M81.6347656,37.6152344  h-3.5795898v11.6699219h3.5795898V37.6152344z M59.583374,35.6152344h16.4718018v-1.6601563H59.5775146L59.583374,35.6152344z   M59.6317139,49.2851563h16.4234619V37.6152344H59.5904541L59.6317139,49.2851563z M59.6793823,62.7651367h16.3757935V51.2851563  H59.6387939L59.6793823,62.7651367z M81.6347656,33.9550781h-3.5795898v1.6601563h3.5795898V33.9550781z M87.2451172,30.7851563  v38.4296875c0,3.8764648-3.1538086,7.0302734-7.0302734,7.0302734H19.7851563c-0.0068359,0-0.0141602,0-0.0209961,0  c-1.8642578,0-3.6201172-0.7255859-4.9428711-2.0444336c-1.3325195-1.3286133-2.0664063-3.0996094-2.0664063-4.9858398V30.7851563  c0-3.8764648,3.1538086-7.0302734,7.0302734-7.0302734h60.4296875  C84.0913086,23.7548828,87.2451172,26.9086914,87.2451172,30.7851563z M83.6347656,31.9550781h-7.5795898h-24.618042  l0.0076904-2.4272461c0.0019531-0.5522461-0.4443359-1.0009766-0.9970703-1.0029297c-0.0009766,0-0.0019531,0-0.0029297,0  c-0.5507813,0-0.9980469,0.4458008-1,0.9970703l-0.0076904,2.4331055h-25.47229h-7.5800781v5.6601563v25.1499023v5.659668v0.0004883  h7.5800781H49.34198l-0.007019,2.0961914c-0.0019531,0.5522461,0.4443359,1.0014648,0.996582,1.003418  c0.0014648,0,0.0024414,0,0.003418,0c0.5507813,0,0.9980469-0.4453125,1-0.996582l0.007019-2.1030273h24.7131958h7.5795898  v-0.0004883v-5.659668V37.6152344V31.9550781z" class="color000000 svgShape"/></svg>