<svg xmlns="http://www.w3.org/2000/svg" enable-background="new 0 0 100 100" viewBox="0 0 100 100"><path fill="#34a853" d="M86.1867599,62.0450325c-9.4936523-7.7075195-16.8793945-22.956543-18.2709961-25.9501953  c-0.3828125-0.7910156-1.2880859-1.1889648-2.1386719-0.949707c-5.2319336,1.4038086-8.8955078,0.9663086-11.0498047,0.3535156  c-0.8779297-0.2470703-1.4907227-0.9780273-1.4907227-1.7773438c0-0.2412109,0.0639648-0.4882813,0.1943359-0.7426758  c0.4086914-0.8164063,0.6157227-1.6738281,0.6157227-2.5473633c0-2.237793-1.3066406-4.2856445-3.4111328-5.34375  c-2.8588867-1.4360352-6.3320313-0.621582-8.0795898,1.8925781c-1.2568359,1.8051758-2.800293,4.0302734-4.2299805,6.0917969  c-1.3339844,1.9233398-2.5688477,3.7041016-3.378418,4.8652344c-0.4628906,0.6601563-1.1557617,1.1762695-2.059082,1.5341797  l-0.2192383,0.0878906c-2.2001934,0.9243164-3.7456036,2.7368164-4.2402325,4.972168  c-0.3912964,1.7668457-0.0768433,3.6098633,0.8278809,5.1706543c-0.1294556,0.0209961-0.2598267,0.0393066-0.4104004,0.0393066  c-1.0605469,0-1.9399414-0.7319336-2.0024414-1.6694336c-0.215332-3.1010742-2.9682617-5.5307617-6.2675781-5.5307617  l-0.1958008,0.0004883c-3.2607422,0.0834961-5.8754892,2.4448242-6.0815439,5.4882813l-0.9394531,13.1035156  c-0.059082,0.7631836-0.3984375,1.5478516-1.0419922,2.3447266l-0.0786133,0.0966797  c-1.6621094,2.1245079-1.9521484,4.8315392-0.7749023,7.2412071c1.300293,2.6625977,4.0380859,4.3149414,7.1489267,4.3149414  c0.0053711,0,0.0107422,0,0.0161133,0l8.1513672-0.0200195c2.4599609-0.0097656,4.9257813-0.6015625,7.3266582-1.7573242  c2.7294922-1.3032227,5.559082-0.7133789,7.4506836,0.0112305c2.0478516,0.7871094,4.1000977,1.1865234,6.0952148,1.1865234  l13.9038086,0.0488281c4.0753784-0.1638184,7.3911743-0.7172852,9.8865356-1.6376953  c3.932312,1.7634277,7.2729492,2.65625,9.9767456,2.65625c1.4038086,0,2.6376953-0.2387695,3.6958008-0.7163086  c1.8779297-0.8476563,3.1655273-2.3930664,3.828125-4.5932617C89.8332443,67.3560638,88.7497482,64.1109467,86.1867599,62.0450325z   M55.0578537,64.0294037c-0.137207,0.4233398-0.5292969,0.6923828-0.9511719,0.6923828  c-0.1020508,0-0.2060547-0.0161133-0.3081055-0.0493164l-17-5.5102501c-0.5253906-0.1704102-0.8134766-0.734375-0.6430664-1.2592773  c0.1704102-0.5258789,0.7358398-0.8120117,1.2592773-0.6430664l17,5.5102539  C54.9401779,62.9405403,55.2282639,63.5045052,55.0578537,64.0294037z M41.1755295,51.4410286  c-0.2006836,0-0.4038086-0.0605469-0.5800781-0.1860352c-0.4492188-0.3208008-0.5537109-0.9453125-0.2329102-1.3950195  l1.8768311-2.630249l1.6734619,1.0982666l-1.9223633,2.6940918C41.7951584,51.2955208,41.4880295,51.4410286,41.1755295,51.4410286z   M54.4221115,58.2300911c-0.1953125,0.2744141-0.503418,0.4208984-0.8164063,0.4208984  c-0.2001953,0-0.4023438-0.0600586-0.578125-0.1845703c-0.4501953-0.3203125-0.5561523-0.9443359-0.2363281-1.3945313  l1.8574829-2.6143799l1.8257446,0.8839111L54.4221115,58.2300911z M50.0412521,55.7300911  c-0.1948242,0.2744141-0.5029297,0.4208984-0.815918,0.4208984c-0.2001953,0-0.4023438-0.0600586-0.578125-0.1850586  c-0.4501953-0.3198242-0.5561523-0.9438477-0.2358398-1.394043l1.7640991-2.4824219l1.7658081,0.967041L50.0412521,55.7300911z   M45.6516037,53.5206184c-0.1953125,0.2744141-0.5029297,0.4204102-0.815918,0.4204102  c-0.2001953,0-0.402832-0.0600586-0.5786133-0.1850586c-0.4501953-0.3203125-0.5551758-0.9443359-0.2353516-1.3945313  l1.949585-2.7412109l1.718689,1.0344238L45.6516037,53.5206184z M33.5100021,41.3765755l0.1147461-0.0458984  c1.2553711-0.4970703,2.2788086-1.2734375,2.9619141-2.2475586c0.6172485-0.885376,1.480835-2.1291504,2.4460449-3.520752  c0.9637451,1.7473145,2.5127563,5.1413574,2.4637451,8.7473145c-0.1484985-0.1033936-0.2858276-0.1994629-0.4034424-0.2827148  c-0.1306152-0.0898438-0.2782593-0.1397705-0.4244995-0.1911621c-0.052002-0.0183105-0.0974731-0.0544434-0.1506958-0.0678711  c-0.1210938-0.0306396-0.246521-0.024292-0.3709106-0.0303955c-0.0845337-0.0041504-0.1677246-0.0274658-0.2521362-0.0203857  c-0.1017456,0.0085449-0.1967163,0.0500488-0.2958984,0.0744629c-0.1039429,0.0258789-0.211792,0.0352783-0.3101807,0.0784912  c-0.1924438,0.0843506-0.371582,0.2016602-0.5267334,0.3511963c-0.5700684,0.5498047-1.1776733,1.0695801-1.7996826,1.5690918  c-2.2514038-1.4936523-4.0282593-2.8896484-4.8664551-3.5712891C32.5064621,41.8880501,32.9743576,41.6011848,33.5100021,41.3765755  z M16.0571232,51.4760628c1.72052,0.229126,9.4173584,1.9561768,15.0031738,14.7066612  c0.0352783,0.0804443,0.0838013,0.1501465,0.1359253,0.2160645c-1.5859375,0.4228516-3.4398804,0.6713867-5.5256348,0.7481689  c-0.9287109-6.8500938-7.8106689-11.1279259-9.8584604-12.2525597L16.0571232,51.4760628z M13.8654718,64.7442474  l0.0693359-0.0849609c0.8374023-1.0375938,1.328125-2.2031212,1.4194336-3.3759727l0.2981567-4.159668  c2.3457651,1.4383545,7.1868906,4.9836426,8.0095224,10.0651817c-4.6136475-0.026123-8.9934702-0.7626953-10.5856943-1.0617676  C13.2614069,65.6511078,13.5188532,65.1863861,13.8654718,64.7442474z M87.0290451,69.733017  c-0.0492554,0.1635742-0.1223755,0.2996826-0.1804199,0.4532471c-0.1047363-0.0240479-0.2120361-0.0424805-0.3244629-0.0299072  c-1.8859253,0.1959229-5.2241821-0.6040039-9.4499512-2.2364502c0.3853149-1.2133789,0.399353-2.5545654,0.0314941-4.0047569  l-0.0004883-0.0014648c-0.7568359-2.9599609-3.362793-5.2583008-6.65625-5.8598633  c-0.4931641-0.0952148-0.9901123-0.1962891-1.4986572-0.3161621L57.2062912,45.1973763  c-0.3774414-0.4023438-1.0102539-0.4233398-1.4135742-0.0463867c-0.402832,0.3774414-0.4238281,1.0102539-0.0463867,1.4135742  l9.482666,10.1256104c-5.6508789-1.8253174-11.250061-4.7030029-15.376709-7.0910645  c1.5982056-14.1365967-4.5509644-19.2310791-6.3909302-20.4180908c0.2509766-0.3609619,0.5028076-0.7231445,0.7366333-1.0588379  c1.1831055-1.7016602,3.565918-2.2387695,5.5395508-1.2475586c1.4243164,0.7163086,2.309082,2.0791016,2.309082,3.5566406  c0,0.5600586-0.1362305,1.1162109-0.4003906,1.644043c-0.2719727,0.5307617-0.409668,1.0844727-0.409668,1.6459961  c0,1.6914063,1.2124023,3.2138672,2.9458008,3.7016602c2.3764648,0.6767578,6.3789063,1.168457,11.9990234-0.315918  c0.1882935,0.4023438,0.4622803,0.9763184,0.8106079,1.6809082l-3.1729126,1.4987793  c-0.4990234,0.2358398-0.7128906,0.8320313-0.4770508,1.331543c0.1708984,0.3613281,0.5302734,0.5727539,0.9047852,0.5727539  c0.1430664,0,0.2885742-0.0307617,0.4267578-0.0957031l3.2225952-1.5222168  c0.4129028,0.7976074,0.8814087,1.6804199,1.4067383,2.6340332l-3.1537476,1.4897461  c-0.4990234,0.2358398-0.7128906,0.8320313-0.4770508,1.331543c0.1708984,0.3613281,0.5302734,0.5727539,0.9047852,0.5727539  c0.1430664,0,0.2885742-0.0307617,0.4267578-0.0957031l3.2821045-1.550415  c0.4356689,0.7593994,0.9018555,1.5490723,1.3921509,2.3565674l-2.8685913,1.3554688  c-0.4995117,0.2363281-0.7128906,0.8320313-0.4770508,1.331543c0.1708984,0.3613281,0.5302734,0.5727539,0.9047852,0.5727539  c0.1435547,0,0.2885742-0.0307617,0.4267578-0.0957031l3.0755615-1.4532471  c0.512207,0.8077393,1.0472412,1.6268311,1.6053467,2.4498291l-3.0153809,1.4248047  c-0.4995117,0.2363281-0.7128906,0.8320313-0.4770508,1.331543c0.1708984,0.3613281,0.5302734,0.5727539,0.9047852,0.5727539  c0.1435547,0,0.2885742-0.0307617,0.4267578-0.0957031l3.3195801-1.5686035  c2.7425537,3.8461914,5.9401245,7.6333008,9.4255371,10.4631348C86.8581467,65.154892,87.6823654,67.5621185,87.0290451,69.733017z" class="color000000 svgShape"/></svg>