<svg xmlns="http://www.w3.org/2000/svg" enable-background="new 0 0 68 68" viewBox="0 0 68 68"><path fill="#fbbc05" d="M26.43,58.7l-3.01,3.01c-4.73,4.73-12.4,4.73-17.13,0l0,0c-4.73-4.73-4.73-12.4,0-17.13l3.01-3.01      L26.43,58.7z" class="colore5e8f9 svgShape"/><path fill="#d6e1f2" d="M26.43,58.7l-3,3c-4.73,4.73-12.4,4.73-17.12,0.01L6.29,61.7c-1.5-1.5-2.52-3.29-3.07-5.2      c0.13,0.14,0.27,0.28,0.41,0.42c4.73,4.73,12.4,4.73,17.12,0.01l1.95-1.95L26.43,58.7z" class="colord6dbf2 svgShape"/><path fill="#1a1f1b" d="M14.86,66c-3.29,0-6.59-1.25-9.09-3.76c-5.01-5.01-5.01-13.17,0-18.19l3.01-3.01      c0.29-0.29,0.77-0.29,1.06,0l17.13,17.13c0.29,0.29,0.29,0.77,0,1.06l-3.01,3.01C21.45,64.74,18.15,66,14.86,66z M9.3,42.63      l-2.48,2.48c-4.43,4.43-4.43,11.64,0,16.07c4.43,4.43,11.64,4.43,16.07,0l2.48-2.48L9.3,42.63z" class="color1a1d1f svgShape"/><path fill="#fff" d="M8.07,57.7c-0.13,0-0.25-0.06-0.32-0.18c-1.59-2.57-1.66-5.8-0.19-8.44c0.1-0.18,0.33-0.25,0.51-0.14      c0.18,0.1,0.25,0.33,0.15,0.51c-1.34,2.4-1.27,5.34,0.17,7.68c0.11,0.18,0.05,0.41-0.12,0.52C8.2,57.68,8.14,57.7,8.07,57.7z" class="colorffffff svgShape"/><path fill="#d6e1f2" d="M34.9,10.26l-18.1,30.67l-3.43-3.43L25.99,5.89c1.33-3.32,5.61-4.2,8.14-1.67l0,0      C35.73,5.82,36.05,8.31,34.9,10.26z" class="colord6dbf2 svgShape"/><polygon fill="#c5d3ea" points="16.79 40.93 13.37 37.5 15.77 31.49 19.91 35.64" class="colorc5ceea svgShape"/><path fill="#fbbc05" d="M41.98,18.5L20.22,44.36l-3.43-3.43l16.8-28.46c1.65-2.8,5.5-3.29,7.8-0.99l0.3,0.3      C43.52,13.6,43.65,16.53,41.98,18.5z" class="colore5e8f9 svgShape"/><path fill="#d6e1f2" d="M48.84,26.57l-25.2,21.21l-3.43-3.43l21.21-25.2c1.88-2.23,5.26-2.38,7.33-0.31l0.4,0.4      C51.22,21.3,51.08,24.69,48.84,26.57z" class="colord6dbf2 svgShape"/><path fill="#c5d3ea" d="M28.93,43.33l-5.28,4.45l-3.42-3.42l3.85-4.57l0.6,0.6C25.92,41.64,27.37,42.63,28.93,43.33z" class="colorc5ceea svgShape"/><path fill="#4285f4" d="M49.08,26.36c-0.08,0.07-0.15,0.15-0.24,0.21L27.95,43.98L49.08,26.36z" class="colora9dcea svgShape"/><path fill="#fbbc05" d="M55.53,34.41l-28.46,16.8l-3.43-3.43L49.5,26.02c1.98-1.66,4.9-1.54,6.72,0.29l0.3,0.3      C58.82,28.9,58.33,32.75,55.53,34.41z" class="colore5e8f9 svgShape"/><path fill="#d6e1f2" d="M62.11,42.01L30.49,54.63l-3.43-3.43l30.67-18.1c1.96-1.15,4.44-0.84,6.05,0.77l0,0      C66.32,36.4,65.43,40.69,62.11,42.01z" class="colord6dbf2 svgShape"/><path fill="#c5d3ea" d="M65.25,37.38c0,1.93-1.11,3.83-3.13,4.64L30.5,54.64l-3.43-3.43l12.81-7.56c0.08-0.02,0.16-0.05,0.24-0.09      l22.85-9.11c0.32-0.13,0.62-0.29,0.9-0.47c-0.02-0.04-0.05-0.07-0.08-0.1C64.78,34.87,65.25,36.13,65.25,37.38z" class="colorc5ceea svgShape"/><polygon fill="#d6e1f2" points="20.22 44.36 16.79 40.93 19.91 35.64 24.07 39.79" class="colord6dbf2 svgShape"/><path fill="#d6e1f2" d="M39.88,43.64L27.07,51.2l-3.42-3.42l5.28-4.45C32.34,44.86,36.27,45.03,39.88,43.64z" class="colord6dbf2 svgShape"/><path fill="#1a1f1b" d="M16.79,41.68c-0.2,0-0.39-0.08-0.53-0.22l-3.43-3.42c-0.21-0.21-0.28-0.53-0.17-0.81L25.29,5.61      c0.72-1.79,2.27-3.1,4.17-3.49c1.89-0.39,3.84,0.19,5.2,1.56c1.85,1.85,2.21,4.71,0.88,6.96l0,0l-18.1,30.67      c-0.12,0.2-0.32,0.33-0.55,0.36C16.86,41.68,16.82,41.68,16.79,41.68z M14.25,37.33l2.39,2.39L34.25,9.88      c0.98-1.66,0.71-3.77-0.65-5.14c-1.01-1.01-2.45-1.44-3.84-1.15c-1.4,0.29-2.55,1.25-3.07,2.57L14.25,37.33z M34.9,10.26      L34.9,10.26L34.9,10.26z" class="color1a1d1f svgShape"/><path fill="#fff" d="M23.23,19.57c-0.06,0-0.12-0.01-0.17-0.04c-0.18-0.1-0.25-0.32-0.16-0.51l4.07-7.76      c0.1-0.18,0.32-0.25,0.51-0.16c0.18,0.1,0.25,0.32,0.16,0.51l-4.07,7.76C23.49,19.49,23.36,19.57,23.23,19.57z" class="colorffffff svgShape"/><path fill="#1a1f1b" d="M20.22,45.11c-0.2,0-0.39-0.08-0.53-0.22l-3.43-3.43c-0.24-0.24-0.29-0.62-0.12-0.91l16.8-28.46      c0.91-1.54,2.44-2.55,4.21-2.77c1.76-0.23,3.51,0.37,4.77,1.63l0.3,0.3c2.12,2.12,2.26,5.45,0.33,7.74l0,0L20.79,44.84      c-0.14,0.16-0.33,0.26-0.54,0.27C20.24,45.11,20.23,45.11,20.22,45.11z M17.73,40.81l2.44,2.44l21.24-25.23      c1.42-1.69,1.32-4.15-0.24-5.71l-0.3-0.3c-0.93-0.93-2.21-1.38-3.52-1.2c-1.31,0.17-2.44,0.91-3.11,2.04L17.73,40.81z       M41.98,18.5L41.98,18.5L41.98,18.5z" class="color1a1d1f svgShape"/><path fill="#1a1f1b" d="M23.64,48.53c-0.19,0-0.38-0.07-0.53-0.22l-3.43-3.43c-0.28-0.28-0.29-0.72-0.04-1.01l21.21-25.2      c1.03-1.22,2.54-1.96,4.13-2.03c1.6-0.06,3.16,0.54,4.3,1.67l0.4,0.4c1.13,1.13,1.74,2.7,1.67,4.29      c-0.07,1.6-0.81,3.11-2.03,4.14l-25.2,21.21C23.99,48.47,23.81,48.53,23.64,48.53z M21.24,44.31l2.45,2.45l24.67-20.77l0,0      c0.92-0.77,1.45-1.85,1.5-3.05c0.05-1.2-0.39-2.32-1.23-3.17l-0.4-0.4c-0.85-0.85-1.97-1.28-3.17-1.23      c-1.2,0.05-2.28,0.58-3.05,1.5L21.24,44.31z" class="color1a1d1f svgShape"/><path fill="#1a1f1b" d="M27.07,51.96c-0.19,0-0.39-0.08-0.53-0.22l-3.43-3.43c-0.15-0.15-0.23-0.35-0.22-0.56      c0.01-0.21,0.11-0.41,0.27-0.54l25.85-21.77c2.29-1.93,5.62-1.79,7.74,0.33l0.3,0.3c1.26,1.26,1.86,3,1.63,4.77      c-0.22,1.77-1.23,3.3-2.77,4.21l0,0l-28.46,16.8C27.33,51.92,27.2,51.96,27.07,51.96z M24.75,47.83l2.44,2.44l27.96-16.5      c1.13-0.67,1.88-1.8,2.04-3.11c0.17-1.31-0.27-2.59-1.2-3.52l-0.3-0.3c-1.56-1.56-4.02-1.67-5.71-0.24L24.75,47.83z       M55.53,34.41L55.53,34.41L55.53,34.41z" class="color1a1d1f svgShape"/><path fill="#1a1f1b" d="M30.49,55.38c-0.2,0-0.39-0.08-0.53-0.22l-3.43-3.43c-0.16-0.16-0.24-0.39-0.21-0.63      c0.03-0.23,0.16-0.43,0.36-0.55l30.67-18.1c2.25-1.33,5.11-0.97,6.96,0.88c1.37,1.37,1.95,3.31,1.56,5.2      c-0.39,1.89-1.69,3.45-3.49,4.16c0,0,0,0,0,0L30.77,55.33C30.68,55.37,30.59,55.38,30.49,55.38z M28.28,51.36l2.39,2.39      l31.16-12.44c1.32-0.53,2.29-1.68,2.57-3.07c0.29-1.4-0.14-2.83-1.15-3.84c-1.36-1.36-3.48-1.63-5.14-0.65L28.28,51.36z       M62.11,42.01L62.11,42.01L62.11,42.01z" class="color1a1d1f svgShape"/><rect width="4.26" height="24.22" x="18.3" y="35.46" fill="#34a853" class="color666666 svgShape" transform="rotate(-45.001 20.426 47.575)"/><rect width="4.26" height="5.26" x="25" y="51.64" fill="#575958" class="color595857 svgShape" transform="rotate(-45.001 27.128 54.277)"/><path fill="#1a1f1b" d="M27.49,58.39c-0.19,0-0.38-0.07-0.53-0.22L9.83,41.05c-0.29-0.29-0.29-0.77,0-1.06l3.01-3.01      c0.29-0.29,0.77-0.29,1.06,0L31.02,54.1c0.29,0.29,0.29,0.77,0,1.06l-3.01,3.01C27.87,58.32,27.68,58.39,27.49,58.39z       M11.42,40.52l16.07,16.07l1.95-1.95L13.37,38.57L11.42,40.52z" class="color1a1d1f svgShape"/><rect width="4.26" height="24.22" x="15.29" y="38.47" fill="#ea4335" class="colorff4848 svgShape" transform="rotate(-45.001 17.417 50.584)"/><rect width="4.26" height="5.26" x="21.99" y="54.65" fill="#f92d1c" class="colorf91c1c svgShape" transform="rotate(-45.001 24.12 57.286)"/><path fill="#1a1f1b" d="M24.48,61.4c-0.19,0-0.38-0.07-0.53-0.22L6.82,44.05c-0.29-0.29-0.29-0.77,0-1.06l3.01-3.01      c0.29-0.29,0.77-0.29,1.06,0l17.13,17.13c0.29,0.29,0.29,0.77,0,1.06l-3.01,3.01C24.86,61.33,24.67,61.4,24.48,61.4z       M8.41,43.52l16.07,16.07l1.95-1.95L10.36,41.58L8.41,43.52z" class="color1a1d1f svgShape"/></svg>