<svg xmlns="http://www.w3.org/2000/svg" xmlns:xlink="http://www.w3.org/1999/xlink" viewBox="0 0 500 500" width="500" height="500" preserveAspectRatio="xMidYMid meet" style="width: 100%; height: 100%; transform: translate3d(0px, 0px, 0px); content-visibility: visible;"><defs><clipPath id="__lottie_element_22386"><rect width="500" height="500" x="0" y="0"></rect></clipPath></defs><g clip-path="url(#__lottie_element_22386)"><g transform="matrix(1,0,0,1,0.11754989624023438,-0.11754989624023438)" opacity="1" style="display: block;"><g opacity="1" transform="matrix(5,0,0,5,250.00100708007812,250)"><g opacity="1" transform="matrix(1,0,0,1,0,0)"><g opacity="1" transform="matrix(1,0,0,1,0,0)"><g opacity="1" transform="matrix(1,0,0,1,0,0)"><path fill="rgb(65,133,244)" fill-opacity="1" d=" M29.333999633789062,4.979000091552734 C29.333999633789062,4.979000091552734 -7.177000045776367,22.197999954223633 -7.177000045776367,22.197999954223633 C-7.177000045776367,22.197999954223633 -10.180999755859375,19.19499969482422 -10.180999755859375,19.19499969482422 C-10.180999755859375,19.19499969482422 24.718000411987305,-3.3329999446868896 24.718000411987305,-3.3329999446868896 C26.604000091552734,-4.550000190734863 29.083999633789062,-4.285999774932861 30.67099952697754,-2.6989998817443848 C30.67099952697754,-2.6989998817443848 30.67099952697754,-2.6989998817443848 30.67099952697754,-2.6989998817443848 C33.00299835205078,-0.367000013589859 32.31700134277344,3.572000026702881 29.333999633789062,4.979000091552734z"></path><path stroke-linecap="round" stroke-linejoin="round" fill-opacity="0" stroke="rgb(51,167,83)" stroke-opacity="1" stroke-width="0.5" d=" M29.333999633789062,4.979000091552734 C29.333999633789062,4.979000091552734 -7.177000045776367,22.197999954223633 -7.177000045776367,22.197999954223633 C-7.177000045776367,22.197999954223633 -10.180999755859375,19.19499969482422 -10.180999755859375,19.19499969482422 C-10.180999755859375,19.19499969482422 24.718000411987305,-3.3329999446868896 24.718000411987305,-3.3329999446868896 C26.604000091552734,-4.550000190734863 29.083999633789062,-4.285999774932861 30.67099952697754,-2.6989998817443848 C30.67099952697754,-2.6989998817443848 30.67099952697754,-2.6989998817443848 30.67099952697754,-2.6989998817443848 C33.00299835205078,-0.367000013589859 32.31700134277344,3.572000026702881 29.333999633789062,4.979000091552734z"></path></g></g></g></g><g opacity="1" transform="matrix(5,0,0,5,249.99798583984375,250.00001525878906)"><g opacity="1" transform="matrix(1,0,0,1,0,0)"><g opacity="1" transform="matrix(1,0,0,1,0,0)"><g opacity="1" transform="matrix(1,0,0,1,0,0)"><path fill="rgb(255,255,255)" fill-opacity="1" d=" M22.993000030517578,-2.2190001010894775 C22.993000030517578,-2.2190001010894775 -10.180999755859375,19.19499969482422 -10.180999755859375,19.19499969482422 C-10.180999755859375,19.19499969482422 -13.1850004196167,16.19099998474121 -13.1850004196167,16.19099998474121 C-13.1850004196167,16.19099998474121 17.08799934387207,-10.026000022888184 17.08799934387207,-10.026000022888184 C18.976999282836914,-11.661999702453613 21.80900001525879,-11.5600004196167 23.576000213623047,-9.793000221252441 C23.576000213623047,-9.793000221252441 23.777999877929688,-9.590999603271484 23.777999877929688,-9.590999603271484 C25.923999786376953,-7.445000171661377 25.542999267578125,-3.865000009536743 22.993000030517578,-2.2190001010894775z"></path><path stroke-linecap="round" stroke-linejoin="round" fill-opacity="0" stroke="rgb(51,167,83)" stroke-opacity="1" stroke-width="0.5" d=" M22.993000030517578,-2.2190001010894775 C22.993000030517578,-2.2190001010894775 -10.180999755859375,19.19499969482422 -10.180999755859375,19.19499969482422 C-10.180999755859375,19.19499969482422 -13.1850004196167,16.19099998474121 -13.1850004196167,16.19099998474121 C-13.1850004196167,16.19099998474121 17.08799934387207,-10.026000022888184 17.08799934387207,-10.026000022888184 C18.976999282836914,-11.661999702453613 21.80900001525879,-11.5600004196167 23.576000213623047,-9.793000221252441 C23.576000213623047,-9.793000221252441 23.777999877929688,-9.590999603271484 23.777999877929688,-9.590999603271484 C25.923999786376953,-7.445000171661377 25.542999267578125,-3.865000009536743 22.993000030517578,-2.2190001010894775z"></path></g></g></g></g><g opacity="1" transform="matrix(5,0,0,5,250,250.00099182128906)"><g opacity="1" transform="matrix(1,0,0,1,0,0)"><g opacity="1" transform="matrix(1,0,0,1,0,0)"><g opacity="1" transform="matrix(1,0,0,1,0,0)"><path fill="rgb(65,133,244)" fill-opacity="1" d=" M16.570999145507812,-9.57800006866455 C16.570999145507812,-9.57800006866455 -13.1850004196167,16.19099998474121 -13.1850004196167,16.19099998474121 C-13.1850004196167,16.19099998474121 -16.187999725341797,13.187000274658203 -16.187999725341797,13.187000274658203 C-16.187999725341797,13.187000274658203 9.579999923706055,-16.569000244140625 9.579999923706055,-16.569000244140625 C11.390000343322754,-18.65999984741211 14.595000267028809,-18.774999618530273 16.551000595092773,-16.819000244140625 C16.551000595092773,-16.819000244140625 16.820999145507812,-16.54800033569336 16.820999145507812,-16.54800033569336 C18.777000427246094,-14.592000007629395 18.66200065612793,-11.388999938964844 16.570999145507812,-9.57800006866455z"></path><path stroke-linecap="round" stroke-linejoin="round" fill-opacity="0" stroke="rgb(51,167,83)" stroke-opacity="1" stroke-width="0.5" d=" M16.570999145507812,-9.57800006866455 C16.570999145507812,-9.57800006866455 -13.1850004196167,16.19099998474121 -13.1850004196167,16.19099998474121 C-13.1850004196167,16.19099998474121 -16.187999725341797,13.187000274658203 -16.187999725341797,13.187000274658203 C-16.187999725341797,13.187000274658203 9.579999923706055,-16.569000244140625 9.579999923706055,-16.569000244140625 C11.390000343322754,-18.65999984741211 14.595000267028809,-18.774999618530273 16.551000595092773,-16.819000244140625 C16.551000595092773,-16.819000244140625 16.820999145507812,-16.54800033569336 16.820999145507812,-16.54800033569336 C18.777000427246094,-14.592000007629395 18.66200065612793,-11.388999938964844 16.570999145507812,-9.57800006866455z"></path></g></g></g></g><g opacity="1" transform="matrix(5,0,0,5,250.00100708007812,249.9980010986328)"><g opacity="1" transform="matrix(1,0,0,1,0,0)"><g opacity="1" transform="matrix(1,0,0,1,0,0)"><g opacity="1" transform="matrix(1,0,0,1,0,0)"><path fill="rgb(255,255,255)" fill-opacity="1" d=" M10.027999877929688,-17.086000442504883 C10.027999877929688,-17.086000442504883 -16.187999725341797,13.187000274658203 -16.187999725341797,13.187000274658203 C-16.187999725341797,13.187000274658203 -19.191999435424805,10.182999610900879 -19.191999435424805,10.182999610900879 C-19.191999435424805,10.182999610900879 2.2219998836517334,-22.990999221801758 2.2219998836517334,-22.990999221801758 C3.868000030517578,-25.541000366210938 7.447000026702881,-25.922000885009766 9.593000411987305,-23.775999069213867 C9.593000411987305,-23.775999069213867 9.795000076293945,-23.573999404907227 9.795000076293945,-23.573999404907227 C11.562000274658203,-21.80699920654297 11.663999557495117,-18.975000381469727 10.027999877929688,-17.086000442504883z"></path><path stroke-linecap="round" stroke-linejoin="round" fill-opacity="0" stroke="rgb(51,167,83)" stroke-opacity="1" stroke-width="0.5" d=" M10.027999877929688,-17.086000442504883 C10.027999877929688,-17.086000442504883 -16.187999725341797,13.187000274658203 -16.187999725341797,13.187000274658203 C-16.187999725341797,13.187000274658203 -19.191999435424805,10.182999610900879 -19.191999435424805,10.182999610900879 C-19.191999435424805,10.182999610900879 2.2219998836517334,-22.990999221801758 2.2219998836517334,-22.990999221801758 C3.868000030517578,-25.541000366210938 7.447000026702881,-25.922000885009766 9.593000411987305,-23.775999069213867 C9.593000411987305,-23.775999069213867 9.795000076293945,-23.573999404907227 9.795000076293945,-23.573999404907227 C11.562000274658203,-21.80699920654297 11.663999557495117,-18.975000381469727 10.027999877929688,-17.086000442504883z"></path></g></g></g></g><g opacity="1" transform="matrix(5,0,0,5,250.00100708007812,250.00100708007812)"><g opacity="1" transform="matrix(1,0,0,1,0,0)"><g opacity="1" transform="matrix(1,0,0,1,0,0)"><g opacity="1" transform="matrix(1,0,0,1,0,0)"><path fill="rgb(65,133,244)" fill-opacity="1" d=" M3.3350000381469727,-24.715999603271484 C3.3350000381469727,-24.715999603271484 -19.191999435424805,10.182999610900879 -19.191999435424805,10.182999610900879 C-19.191999435424805,10.182999610900879 -22.195999145507812,7.178999900817871 -22.195999145507812,7.178999900817871 C-22.195999145507812,7.178999900817871 -4.9770002365112305,-29.332000732421875 -4.9770002365112305,-29.332000732421875 C-3.569999933242798,-32.314998626708984 0.36899998784065247,-33 2.7009999752044678,-30.667999267578125 C2.7009999752044678,-30.667999267578125 2.7009999752044678,-30.667999267578125 2.7009999752044678,-30.667999267578125 C4.288000106811523,-29.08099937438965 4.552000045776367,-26.601999282836914 3.3350000381469727,-24.715999603271484z"></path><path stroke-linecap="round" stroke-linejoin="round" fill-opacity="0" stroke="rgb(51,167,83)" stroke-opacity="1" stroke-width="0.5" d=" M3.3350000381469727,-24.715999603271484 C3.3350000381469727,-24.715999603271484 -19.191999435424805,10.182999610900879 -19.191999435424805,10.182999610900879 C-19.191999435424805,10.182999610900879 -22.195999145507812,7.178999900817871 -22.195999145507812,7.178999900817871 C-22.195999145507812,7.178999900817871 -4.9770002365112305,-29.332000732421875 -4.9770002365112305,-29.332000732421875 C-3.569999933242798,-32.314998626708984 0.36899998784065247,-33 2.7009999752044678,-30.667999267578125 C2.7009999752044678,-30.667999267578125 2.7009999752044678,-30.667999267578125 2.7009999752044678,-30.667999267578125 C4.288000106811523,-29.08099937438965 4.552000045776367,-26.601999282836914 3.3350000381469727,-24.715999603271484z"></path></g></g></g></g><g opacity="1" transform="matrix(5,0,0,5,250,250)"><g opacity="1" transform="matrix(1,0,0,1,0,0)"><g opacity="1" transform="matrix(1,0,0,1,0,0)"><g opacity="1" transform="matrix(1,0,0,1,0,0)"><path fill="rgb(65,133,244)" fill-opacity="1" d="M0 0"></path><path stroke-linecap="round" stroke-linejoin="round" fill-opacity="0" stroke="rgb(51,167,83)" stroke-opacity="1" stroke-width="0.5" d="M0 0"></path></g><g opacity="1" transform="matrix(1,0,0,1,0,0)"><path fill="rgb(255,255,255)" fill-opacity="1" d="M0 0"></path><path stroke-linecap="round" stroke-linejoin="round" fill-opacity="0" stroke="rgb(51,167,83)" stroke-opacity="1" stroke-width="0.5" d="M0 0"></path></g><g opacity="1" transform="matrix(1,0,0,1,0,0)"><path fill="rgb(65,133,244)" fill-opacity="1" d="M0 0"></path><path stroke-linecap="round" stroke-linejoin="round" fill-opacity="0" stroke="rgb(51,167,83)" stroke-opacity="1" stroke-width="0.5" d="M0 0"></path></g><g opacity="1" transform="matrix(1,0,0,1,0,0)"><path fill="rgb(255,255,255)" fill-opacity="1" d="M0 0"></path><path stroke-linecap="round" stroke-linejoin="round" fill-opacity="0" stroke="rgb(51,167,83)" stroke-opacity="1" stroke-width="0.5" d="M0 0"></path></g><g opacity="1" transform="matrix(1,0,0,1,0,0)"><path fill="rgb(65,133,244)" fill-opacity="1" d="M0 0"></path><path stroke-linecap="round" stroke-linejoin="round" fill-opacity="0" stroke="rgb(51,167,83)" stroke-opacity="1" stroke-width="0.5" d="M0 0"></path></g></g><g opacity="1" transform="matrix(1,0,0,1,0,0)"><path fill="rgb(233,66,52)" fill-opacity="1" d=" M-7.176000118255615,22.19300079345703 C-7.176000118255615,22.19300079345703 -13.937000274658203,28.95400047302246 -13.937000274658203,28.95400047302246 C-18.083999633789062,33.10100173950195 -24.80900001525879,33.10100173950195 -28.95599937438965,28.95400047302246 C-28.95599937438965,28.95400047302246 -28.95599937438965,28.95400047302246 -28.95599937438965,28.95400047302246 C-33.10300064086914,24.80699920654297 -33.10300064086914,18.082000732421875 -28.95599937438965,13.9350004196167 C-28.95599937438965,13.9350004196167 -22.195999145507812,7.173999786376953 -22.195999145507812,7.173999786376953 C-22.195999145507812,7.173999786376953 -7.176000118255615,22.19300079345703 -7.176000118255615,22.19300079345703z"></path><path stroke-linecap="round" stroke-linejoin="round" fill-opacity="0" stroke="rgb(51,167,83)" stroke-opacity="1" stroke-width="0.5" d=" M-7.176000118255615,22.19300079345703 C-7.176000118255615,22.19300079345703 -13.937000274658203,28.95400047302246 -13.937000274658203,28.95400047302246 C-18.083999633789062,33.10100173950195 -24.80900001525879,33.10100173950195 -28.95599937438965,28.95400047302246 C-28.95599937438965,28.95400047302246 -28.95599937438965,28.95400047302246 -28.95599937438965,28.95400047302246 C-33.10300064086914,24.80699920654297 -33.10300064086914,18.082000732421875 -28.95599937438965,13.9350004196167 C-28.95599937438965,13.9350004196167 -22.195999145507812,7.173999786376953 -22.195999145507812,7.173999786376953 C-22.195999145507812,7.173999786376953 -7.176000118255615,22.19300079345703 -7.176000118255615,22.19300079345703z"></path></g><g opacity="1" transform="matrix(1,0,0,1,0,0)"><path fill="rgb(250,188,4)" fill-opacity="1" d=" M-10.038999557495117,25.055999755859375 C-10.038999557495117,25.055999755859375 -7.176000118255615,22.19300079345703 -7.176000118255615,22.19300079345703 C-7.176000118255615,22.19300079345703 -22.195999145507812,7.173999786376953 -22.195999145507812,7.173999786376953 C-22.195999145507812,7.173999786376953 -25.058000564575195,10.036999702453613 -25.058000564575195,10.036999702453613 C-25.058000564575195,10.036999702453613 -10.038999557495117,25.055999755859375 -10.038999557495117,25.055999755859375z"></path><path stroke-linecap="round" stroke-linejoin="round" fill-opacity="0" stroke="rgb(51,167,83)" stroke-opacity="1" stroke-width="0.5" d=" M-10.038999557495117,25.055999755859375 C-10.038999557495117,25.055999755859375 -7.176000118255615,22.19300079345703 -7.176000118255615,22.19300079345703 C-7.176000118255615,22.19300079345703 -22.195999145507812,7.173999786376953 -22.195999145507812,7.173999786376953 C-22.195999145507812,7.173999786376953 -25.058000564575195,10.036999702453613 -25.058000564575195,10.036999702453613 C-25.058000564575195,10.036999702453613 -10.038999557495117,25.055999755859375 -10.038999557495117,25.055999755859375z"></path></g><g opacity="1" transform="matrix(1,0,0,1,0,0)"><g opacity="1" transform="matrix(1,0,0,1,0,0)"><path fill="rgb(255,255,255)" fill-opacity="1" d=" M13.92199993133545,14.350000381469727 C13.60200023651123,14.350000381469727 13.281999588012695,14.227999687194824 13.038000106811523,13.984000205993652 C13.038000106811523,13.984000205993652 -14.130999565124512,-13.1850004196167 -14.130999565124512,-13.1850004196167 C-14.619000434875488,-13.67300033569336 -14.619000434875488,-14.46500015258789 -14.130999565124512,-14.95300006866455 C-13.642999649047852,-15.440999984741211 -12.85099983215332,-15.440999984741211 -12.36299991607666,-14.95300006866455 C-12.36299991607666,-14.95300006866455 14.805999755859375,12.215999603271484 14.805999755859375,12.215999603271484 C15.293999671936035,12.704000473022461 15.293999671936035,13.496000289916992 14.805999755859375,13.984000205993652 C14.562000274658203,14.227999687194824 14.241999626159668,14.350000381469727 13.92199993133545,14.350000381469727z"></path><path stroke-linecap="round" stroke-linejoin="round" fill-opacity="0" stroke="rgb(51,167,83)" stroke-opacity="1" stroke-width="0.5" d=" M13.92199993133545,14.350000381469727 C13.60200023651123,14.350000381469727 13.281999588012695,14.227999687194824 13.038000106811523,13.984000205993652 C13.038000106811523,13.984000205993652 -14.130999565124512,-13.1850004196167 -14.130999565124512,-13.1850004196167 C-14.619000434875488,-13.67300033569336 -14.619000434875488,-14.46500015258789 -14.130999565124512,-14.95300006866455 C-13.642999649047852,-15.440999984741211 -12.85099983215332,-15.440999984741211 -12.36299991607666,-14.95300006866455 C-12.36299991607666,-14.95300006866455 14.805999755859375,12.215999603271484 14.805999755859375,12.215999603271484 C15.293999671936035,12.704000473022461 15.293999671936035,13.496000289916992 14.805999755859375,13.984000205993652 C14.562000274658203,14.227999687194824 14.241999626159668,14.350000381469727 13.92199993133545,14.350000381469727z"></path></g></g></g><g opacity="1" transform="matrix(1,0,0,1,0,0)"><path fill="rgb(236,102,89)" fill-opacity="1" d=" M-25.25200080871582,21.94099998474121 C-25.25200080871582,24.246999740600586 -26.517000198364258,26.101999282836914 -28.07200050354004,26.101999282836914 C-29.62700080871582,26.101999282836914 -30.89299964904785,24.246999740600586 -30.89299964904785,21.94099998474121 C-30.89299964904785,19.645999908447266 -29.62700080871582,17.780000686645508 -28.07200050354004,17.780000686645508 C-26.517000198364258,17.780000686645508 -25.25200080871582,19.645999908447266 -25.25200080871582,21.94099998474121z"></path></g></g></g><g transform="matrix(1,0,0,1,0,0)" opacity="1" style="display: none;"><g opacity="1" transform="matrix(0.9998477101325989,-0.017452405765652657,0.017452405765652657,0.9998477101325989,247.16571044921875,247.22340393066406)"><g opacity="1" transform="matrix(1,0,0,1,0,0)"><path fill="rgb(255,255,255)" fill-opacity="1" d=" M-159.63699340820312,160.14500427246094 C-160.20199584960938,160.70399475097656 -160.5,161 -160.5,161"></path><path stroke-linecap="butt" stroke-linejoin="miter" fill-opacity="0" stroke-miterlimit="4" stroke="rgb(51,167,83)" stroke-opacity="1" stroke-width="2.5" d=" M-159.63699340820312,160.14500427246094 C-160.20199584960938,160.70399475097656 -160.5,161 -160.5,161"></path></g></g></g><g transform="matrix(1,0,0,1,0,0)" opacity="1" style="display: none;"><g opacity="1" transform="matrix(0.9998477101325989,0.017452405765652657,-0.017452405765652657,0.9998477101325989,407.785400390625,246.8256378173828)"><g opacity="1" transform="matrix(1,0,0,1,0,0)"><path fill="rgb(255,255,255)" fill-opacity="1" d=" M-160.49200439453125,160.99200439453125 C-160.4969940185547,160.9969940185547 -160.5,161 -160.5,161"></path><path stroke-linecap="butt" stroke-linejoin="miter" fill-opacity="0" stroke-miterlimit="4" stroke="rgb(51,167,83)" stroke-opacity="1" stroke-width="2.5" d=" M-160.49200439453125,160.99200439453125 C-160.4969940185547,160.9969940185547 -160.5,161 -160.5,161"></path></g></g></g><g transform="matrix(1,0,0,1,0,0)" opacity="1" style="display: none;"><g opacity="1" transform="matrix(1,0,0,1,487,204)"><g opacity="1" transform="matrix(1,0,0,1,0,0)"><path fill="rgb(255,255,255)" fill-opacity="1" d=" M-160.49200439453125,160.99200439453125 C-160.4969940185547,160.9969940185547 -160.5,161 -160.5,161"></path><path stroke-linecap="butt" stroke-linejoin="miter" fill-opacity="0" stroke-miterlimit="4" stroke="rgb(51,167,83)" stroke-opacity="1" stroke-width="2.5" d=" M-160.49200439453125,160.99200439453125 C-160.4969940185547,160.9969940185547 -160.5,161 -160.5,161"></path></g></g></g><g transform="matrix(1,0,0,1,0,0)" opacity="1" style="display: none;"><g opacity="1" transform="matrix(0.9998477101325989,-0.017452405765652657,0.017452405765652657,0.9998477101325989,263.16571044921875,50.22340393066406)"><g opacity="1" transform="matrix(1,0,0,1,0,0)"><path fill="rgb(255,255,255)" fill-opacity="1" d=" M-160.49200439453125,160.99200439453125 C-160.4969940185547,160.9969940185547 -160.5,161 -160.5,161"></path><path stroke-linecap="butt" stroke-linejoin="miter" fill-opacity="0" stroke-miterlimit="4" stroke="rgb(51,167,83)" stroke-opacity="1" stroke-width="2.5" d=" M-160.49200439453125,160.99200439453125 C-160.4969940185547,160.9969940185547 -160.5,161 -160.5,161"></path></g></g></g><g transform="matrix(1,0,0,1,0,0)" opacity="1" style="display: none;"><g opacity="1" transform="matrix(0.9998477101325989,-0.017452405765652657,0.017452405765652657,0.9998477101325989,216.16571044921875,156.22340393066406)"><g opacity="1" transform="matrix(1,0,0,1,0,0)"><path fill="rgb(255,255,255)" fill-opacity="1" d=" M-160.49200439453125,160.99200439453125 C-160.4969940185547,160.9969940185547 -160.5,161 -160.5,161"></path><path stroke-linecap="butt" stroke-linejoin="miter" fill-opacity="0" stroke-miterlimit="4" stroke="rgb(51,167,83)" stroke-opacity="1" stroke-width="2.5" d=" M-160.49200439453125,160.99200439453125 C-160.4969940185547,160.9969940185547 -160.5,161 -160.5,161"></path></g></g></g></g></svg>