<svg width="24" height="18" viewBox="0 0 24 18" fill="none" xmlns="http://www.w3.org/2000/svg">
<path d="M11.9816 14.7684C10.0543 14.7684 8.12644 14.7684 6.19811 14.7684C4.99316 14.7684 4.01227 13.9809 3.75374 12.8068C3.71491 12.6266 3.69527 12.4428 3.69513 12.2585C3.6913 10.4569 3.6913 8.65526 3.69513 6.85364C3.69513 5.71963 4.63044 4.77055 5.7676 4.75221C6.57537 4.73999 7.25139 4.45076 7.79756 3.84822C8.43949 3.13985 9.253 2.7891 10.2048 2.7784C11.3661 2.76618 12.5279 2.76618 13.6902 2.7784C14.6094 2.78948 15.4179 3.11234 16.0407 3.79931C16.6263 4.4454 17.3391 4.74495 18.2047 4.75718C19.217 4.77132 20.1581 5.64322 20.2749 6.64388C20.2952 6.8143 20.3055 6.98576 20.3059 7.15739C20.3082 8.85075 20.3082 10.5446 20.3059 12.239C20.3059 13.6772 19.2186 14.7668 17.7811 14.768C15.8487 14.7695 13.9155 14.7696 11.9816 14.7684ZM12.0023 13.8831C13.9039 13.8831 15.8059 13.8701 17.7072 13.8881C18.6877 13.8976 19.4284 13.1621 19.4147 12.1893C19.3905 10.4899 19.4081 8.78886 19.4078 7.09014C19.4078 7.02022 19.4078 6.9503 19.4013 6.88038C19.3776 6.54357 19.227 6.22816 18.9799 5.99748C18.7327 5.7668 18.4072 5.63792 18.0688 5.63672C17.0239 5.62551 16.1496 5.23541 15.4459 4.46642C14.9637 3.93915 14.3681 3.67437 13.6503 3.67667C12.5082 3.68049 11.3657 3.67667 10.2235 3.67858C10.0834 3.67758 9.9434 3.68793 9.80492 3.70953C9.25683 3.80161 8.80526 4.06677 8.43221 4.47674C7.76501 5.21071 6.93081 5.62297 5.93919 5.62526C5.23981 5.62526 4.57721 6.12655 4.58755 6.97896C4.60938 8.72925 4.59329 10.4799 4.59559 12.2306C4.59273 12.3704 4.60557 12.5101 4.63389 12.6471C4.80433 13.3868 5.44089 13.8816 6.22109 13.8823C8.14814 13.8844 10.0752 13.8846 12.0023 13.8831Z" fill="#5A5A5A"/>
<path d="M14.0155 6.67932L14.4423 5.94698L14.4898 5.98727L14.7692 9.23077C14.096 8.74494 13.4389 8.27158 12.7596 7.78431L13.2676 7.33493C12.9488 6.98147 12.6038 6.77476 12.2197 6.7316C11.2135 6.61842 10.4437 7.27594 10.0267 8.58331C9.92063 8.91567 9.69005 9.05236 9.47327 8.91328C9.26524 8.78091 9.17032 8.44951 9.2713 8.12674C9.72539 6.67117 10.5023 5.79831 11.6134 5.58009C12.4826 5.40936 13.2517 5.76809 13.9186 6.57669C13.9359 6.59579 13.954 6.61356 13.9728 6.62992L14.0155 6.67932Z" fill="#5A5A5A"/>
<path d="M9.999 11.8043L9.44834 12.4426C9.37523 11.3614 9.3045 10.3195 9.23071 9.23077L11.2046 10.7952L10.7131 11.1523C10.9655 11.4434 11.268 11.6391 11.5911 11.7204C12.6031 11.9885 13.5298 11.3173 13.9721 10.0046C14.0689 9.71679 14.2276 9.57899 14.4212 9.61461C14.5088 9.62941 14.5902 9.68425 14.6527 9.77042C14.7152 9.85659 14.7551 9.96917 14.7661 10.0903C14.7759 10.213 14.762 10.337 14.7259 10.4498C14.249 11.8788 13.4509 12.7173 12.3157 12.8954C11.4303 13.0346 10.663 12.646 9.999 11.8043Z" fill="#5A5A5A"/>
</svg>
