<svg fill="#32B768" viewBox="0 0 32 32" version="1.1" xmlns="http://www.w3.org/2000/svg"><g id="SVGRepo_bgCarrier" stroke-width="0"></g><g id="SVGRepo_tracerCarrier" stroke-linecap="round" stroke-linejoin="round"></g><g id="SVGRepo_iconCarrier"> <title>calendar-check</title> <path d="M28 5.25h-1.25v-3.25c0-0.414-0.336-0.75-0.75-0.75s-0.75 0.336-0.75 0.75v0 3.25h-18.5v-3.25c0-0.414-0.336-0.75-0.75-0.75s-0.75 0.336-0.75 0.75v0 3.25h-1.25c-1.518 0.002-2.748 1.232-2.75 2.75v19.998c0.002 1.518 1.232 2.748 2.75 2.75h24c1.518-0.002 2.748-1.232 2.75-2.75v-19.998c-0.002-1.518-1.232-2.748-2.75-2.75h-0zM4 6.75h24c0.69 0.001 1.249 0.56 1.25 1.25v3.25h-26.5v-3.25c0.001-0.69 0.56-1.249 1.25-1.25h0zM28 29.248h-24c-0.69-0.001-1.249-0.56-1.25-1.25v-15.248h26.5v15.248c-0.001 0.69-0.56 1.249-1.25 1.25h-0zM19.939 17.020l-6.211 6.788-1.693-1.681c-0.136-0.135-0.323-0.219-0.53-0.219-0.415 0-0.751 0.336-0.751 0.751 0 0.209 0.086 0.399 0.224 0.535l0 0 2.247 2.23 0.016 0.007 0.006 0.013c0.13 0.122 0.306 0.197 0.499 0.197 0.199 0 0.38-0.080 0.512-0.21l-0 0 0.027-0.011 0.005-0.011 0.017-0.012 6.737-7.365c0.122-0.133 0.197-0.311 0.197-0.506 0-0.414-0.335-0.749-0.749-0.749-0.219 0-0.415 0.094-0.552 0.243l-0 0.001z"></path> </g></svg>