<svg width="24" height="24" viewBox="0 0 24 24" fill="none" xmlns="http://www.w3.org/2000/svg">
<path d="M16.109 13.7058C15.9748 13.6432 15.842 13.5784 15.7106 13.5113C15.1684 13.2345 14.4857 13.4351 14.2338 13.9893C13.8871 14.752 12.8853 14.9337 12.2928 14.3412L9.6505 11.6989C9.05805 11.1065 9.23972 10.1046 10.0025 9.75794C10.5276 9.51922 10.7126 8.86823 10.4384 8.36068C10.3226 8.1463 10.2128 7.92804 10.1093 7.70612C9.9028 7.26326 9.72354 6.81057 9.57175 6.35054C9.32148 5.59206 8.46038 5.16909 7.74873 5.53169L5.87327 6.48729C5.56452 6.6446 5.37294 6.96771 5.40314 7.31291C5.65731 10.218 6.92691 12.9407 8.98897 15.0027C11.051 17.0648 13.7737 18.3344 16.6788 18.5886C17.0242 18.6188 17.3476 18.4271 17.505 18.1181L18.5125 16.1409C18.8796 15.4203 18.4413 14.5489 17.669 14.3088C17.1385 14.1439 16.6173 13.9428 16.109 13.7058Z" fill="#C2CCDE" fill-opacity="0.25" stroke="#414141" stroke-linecap="round" stroke-linejoin="round"/>
</svg>
