<svg width="24" height="24" viewBox="0 0 24 24" fill="none" xmlns="http://www.w3.org/2000/svg">
<path d="M9.59661 4.88544L8.94032 6.6H4.20005C3.70299 6.6 3.30005 7.00295 3.30005 7.5V18.3C3.30005 18.7971 3.70299 19.2 4.20005 19.2H10.4625C10.1409 19.0755 9.8266 18.9255 9.52255 18.75C7.43255 17.5433 6.14505 15.3133 6.14505 12.9C6.14505 10.4867 7.43255 8.25665 9.52255 7.04999C11.6126 5.84332 14.1875 5.84332 16.2775 7.04999C18.3676 8.25665 19.655 10.4867 19.655 12.9C19.655 15.3133 18.3676 17.5433 16.2775 18.75C15.9735 18.9255 15.6592 19.0755 15.3376 19.2H19.2C19.6971 19.2 20.1 18.7971 20.1 18.3V7.5C20.1 7.00295 19.6971 6.6 19.2 6.6H16.8961L16.2398 4.88544C16.1509 4.65325 15.9281 4.49993 15.6795 4.49993H10.157C9.90835 4.49993 9.68548 4.65325 9.59661 4.88544Z" fill="#C2CCDE" fill-opacity="0.25"/>
<path d="M7.17458 6.59999H4.8359L4.99518 5.87178C5.05543 5.59633 5.29935 5.39999 5.58132 5.39999H6.42916C6.71113 5.39999 6.95505 5.59633 7.0153 5.87178L7.17458 6.59999Z" fill="#C2CCDE" fill-opacity="0.25"/>
<path d="M15.2491 4.49999H10.5717L10.9394 3.65952C11.035 3.44111 11.2507 3.29999 11.4891 3.29999H14.3317C14.5701 3.29999 14.7859 3.44111 14.8814 3.65952L15.2491 4.49999Z" fill="#C2CCDE" fill-opacity="0.25"/>
<path d="M9.52255 7.04999C11.6126 5.84332 14.1875 5.84332 16.2775 7.04999C18.3676 8.25665 19.655 10.4867 19.655 12.9C19.655 15.3133 18.3676 17.5433 16.2775 18.75C14.1875 19.9567 11.6126 19.9567 9.52255 18.75C7.43255 17.5433 6.14505 15.3133 6.14505 12.9C6.14505 10.4867 7.43255 8.25665 9.52255 7.04999Z" fill="#C2CCDE" fill-opacity="0.25"/>
<path d="M10.8216 9.3C12.1077 8.55744 13.6924 8.55744 14.9785 9.3C16.2647 10.0426 17.057 11.4149 17.057 12.9C17.057 14.3851 16.2647 15.7574 14.9785 16.5C13.6924 17.2426 12.1077 17.2426 10.8216 16.5C9.53543 15.7574 8.74313 14.3851 8.74313 12.9C8.74313 11.4149 9.53543 10.0426 10.8216 9.3Z" fill="#C2CCDE" fill-opacity="0.25"/>
<path d="M9.52255 18.75C9.8266 18.9255 10.1409 19.0755 10.4625 19.2H4.20005C3.70299 19.2 3.30005 18.7971 3.30005 18.3V7.5C3.30005 7.00295 3.70299 6.6 4.20005 6.6H8.94032L9.59661 4.88544C9.68548 4.65325 9.90835 4.49993 10.157 4.49993H15.6795C15.9281 4.49993 16.1509 4.65325 16.2398 4.88544L16.8961 6.6H19.2C19.6971 6.6 20.1 7.00295 20.1 7.5V18.3C20.1 18.7971 19.6971 19.2 19.2 19.2H15.3376C15.6592 19.0755 15.9735 18.9255 16.2775 18.75M9.52255 18.75C7.43255 17.5433 6.14505 15.3133 6.14505 12.9C6.14505 10.4867 7.43255 8.25665 9.52255 7.04999C11.6126 5.84332 14.1875 5.84332 16.2775 7.04999C18.3676 8.25665 19.655 10.4867 19.655 12.9C19.655 15.3133 18.3676 17.5433 16.2775 18.75M9.52255 18.75C11.6126 19.9567 14.1875 19.9567 16.2775 18.75M10.9232 13.5416C10.8568 13.3372 10.8216 13.1209 10.8216 12.8996C10.8216 12.1572 11.2177 11.4712 11.8606 11.0999C12.182 10.9144 12.5407 10.8216 12.8994 10.8215M7.17458 6.59999H4.8359L4.99518 5.87178C5.05543 5.59633 5.29935 5.39999 5.58132 5.39999H6.42916C6.71113 5.39999 6.95505 5.59633 7.0153 5.87178L7.17458 6.59999ZM15.2491 4.49999H10.5717L10.9394 3.65952C11.035 3.44111 11.2507 3.29999 11.4891 3.29999H14.3317C14.5701 3.29999 14.7859 3.44111 14.8814 3.65952L15.2491 4.49999ZM8.74313 12.9C8.74313 11.4149 9.53543 10.0426 10.8216 9.3C12.1077 8.55744 13.6924 8.55744 14.9785 9.3C16.2647 10.0426 17.057 11.4149 17.057 12.9C17.057 14.3851 16.2647 15.7574 14.9785 16.5C13.6924 17.2426 12.1077 17.2426 10.8216 16.5C9.53543 15.7574 8.74313 14.3851 8.74313 12.9Z" stroke="#414141" stroke-linecap="round" stroke-linejoin="round"/>
</svg>
