<svg width="23" height="23" viewBox="0 0 23 23" fill="none" xmlns="http://www.w3.org/2000/svg">
<g clip-path="url(#clip0_291_6789)">
<path d="M10.875 6.5H6.5C6.16848 6.5 5.85054 6.6317 5.61612 6.86612C5.3817 7.10054 5.25 7.41848 5.25 7.75V16.5C5.25 16.8315 5.3817 17.1495 5.61612 17.3839C5.85054 17.6183 6.16848 17.75 6.5 17.75H15.25C15.5815 17.75 15.8995 17.6183 16.1339 17.3839C16.3683 17.1495 16.5 16.8315 16.5 16.5V12.125" stroke="#414141" stroke-linecap="round" stroke-linejoin="round"/>
<path d="M15.5625 5.5625C15.8111 5.31386 16.1484 5.17418 16.5 5.17418C16.8516 5.17418 17.1889 5.31386 17.4375 5.5625C17.6861 5.81114 17.8258 6.14837 17.8258 6.5C17.8258 6.85163 17.6861 7.18886 17.4375 7.4375L11.5 13.375L9 14L9.625 11.5L15.5625 5.5625Z" stroke="#414141" stroke-linecap="round" stroke-linejoin="round"/>
</g>
<defs>
<clipPath id="clip0_291_6789">
<rect width="15" height="15" fill="white" transform="translate(4 4)"/>
</clipPath>
</defs>
</svg>
