<svg width="24" height="24" viewBox="0 0 24 24" fill="none" xmlns="http://www.w3.org/2000/svg">
<path d="M5.40002 4.8C5.40002 4.13726 5.93728 3.6 6.60002 3.6H17.4C18.0628 3.6 18.6 4.13726 18.6 4.8V19.2C18.6 19.8627 18.0628 20.4 17.4 20.4H6.60002C5.93728 20.4 5.40002 19.8627 5.40002 19.2V4.8Z" fill="#C2CCDE" fill-opacity="0.25"/>
<path d="M8.40002 7.2H15.6M8.40002 9.6H13.2M8.40002 12H15.6M8.40002 14.4H13.2M8.40002 16.8H15.6M6.60002 20.4H17.4C18.0628 20.4 18.6 19.8627 18.6 19.2V4.8C18.6 4.13726 18.0628 3.6 17.4 3.6H6.60002C5.93728 3.6 5.40002 4.13726 5.40002 4.8V19.2C5.40002 19.8627 5.93728 20.4 6.60002 20.4Z" stroke="#414141" stroke-linecap="round" stroke-linejoin="round"/>
</svg>
