<svg width="24" height="24" viewBox="0 0 24 24" fill="none" xmlns="http://www.w3.org/2000/svg">
<path fill-rule="evenodd" clip-rule="evenodd" d="M12 5.4L18 10.2H17C17.5523 10.2 18 10.6477 18 11.2V17.6C18 18.1523 17.5523 18.6 17 18.6H7C6.44772 18.6 6 18.1523 6 17.6L6 11.2C6 10.6477 6.44772 10.2 7 10.2H6L12 5.4ZM13.8 15L13.8 11.4H10.2L10.2 15L13.8 15Z" fill="#32B768"/>
<path d="M20.2501 12L19.3501 11.28L12.0001 5.4L4.65012 11.28L3.75012 12" stroke="#32B768" stroke-width="3" stroke-linecap="round" stroke-linejoin="round"/>
<path fill-rule="evenodd" clip-rule="evenodd" d="M16.8751 9.3H18.6001V5.7L12.6001 5.7V5.88L16.8751 9.3Z" fill="#32B768"/>
<path d="M18.6001 9.3V10.3C19.1524 10.3 19.6001 9.85228 19.6001 9.3L18.6001 9.3ZM16.8751 9.3L16.2504 10.0809C16.4277 10.2227 16.648 10.3 16.8751 10.3V9.3ZM18.6001 5.7H19.6001C19.6001 5.14771 19.1524 4.7 18.6001 4.7V5.7ZM12.6001 5.7V4.7C12.0478 4.7 11.6001 5.14771 11.6001 5.7H12.6001ZM12.6001 5.88H11.6001C11.6001 6.18378 11.7382 6.4711 11.9754 6.66087L12.6001 5.88ZM18.6001 8.3H16.8751V10.3H18.6001V8.3ZM17.6001 5.7V9.3L19.6001 9.3V5.7H17.6001ZM12.6001 6.7L18.6001 6.7V4.7L12.6001 4.7V6.7ZM13.6001 5.88V5.7H11.6001V5.88H13.6001ZM11.9754 6.66087L16.2504 10.0809L17.4998 8.51913L13.2248 5.09913L11.9754 6.66087Z" fill="#32B768"/>
</svg>
