<svg width="24" height="24" viewBox="0 0 24 24" fill="none" xmlns="http://www.w3.org/2000/svg">
<path d="M9.34832 5.59835C11.0461 4.89509 12.9538 4.89509 14.6516 5.59835C16.3494 6.30161 17.6984 7.65053 18.4016 9.34835C19.1049 11.0462 19.1049 12.9538 18.4016 14.6517C17.6984 16.3495 16.3494 17.6984 14.6516 18.4017C12.9538 19.1049 11.0461 19.1049 9.34832 18.4017C7.6505 17.6984 6.30159 16.3495 5.59833 14.6517C4.89506 12.9538 4.89506 11.0462 5.59833 9.34835C6.30159 7.65053 7.6505 6.30161 9.34832 5.59835Z" fill="#C2CCDE" fill-opacity="0.25"/>
<path d="M12.0024 7.01105L12 3.6L11.9976 7.01105C11.9992 7.01105 12.0008 7.01105 12.0024 7.01105Z" fill="#C2CCDE" fill-opacity="0.25"/>
<path d="M16.9889 11.9976C16.9889 11.9992 16.9889 12.0008 16.9889 12.0024L20.4 12L16.9889 11.9976Z" fill="#C2CCDE" fill-opacity="0.25"/>
<path d="M12.0024 16.9889C12.0008 16.9889 11.9992 16.9889 11.9976 16.9889L12 20.4L12.0024 16.9889Z" fill="#C2CCDE" fill-opacity="0.25"/>
<path d="M7.01103 12.0024C7.01103 12.0008 7.01103 11.9992 7.01103 11.9976L3.59998 12L7.01103 12.0024Z" fill="#C2CCDE" fill-opacity="0.25"/>
<path d="M10.9393 9.43934C11.6184 9.15804 12.3815 9.15804 13.0606 9.43934C13.7398 9.72064 14.2793 10.2602 14.5606 10.9393C14.8419 11.6185 14.8419 12.3815 14.5606 13.0607C14.2793 13.7398 13.7398 14.2794 13.0606 14.5607C12.3815 14.842 11.6184 14.842 10.9393 14.5607C10.2602 14.2794 9.72062 13.7398 9.43931 13.0607C9.15801 12.3815 9.15801 11.6185 9.43931 10.9393C9.72062 10.2602 10.2602 9.72064 10.9393 9.43934Z" fill="#C2CCDE" fill-opacity="0.25"/>
<path d="M9.34832 5.59835C11.0461 4.89509 12.9538 4.89509 14.6516 5.59835C16.3494 6.30161 17.6984 7.65053 18.4016 9.34835C19.1049 11.0462 19.1049 12.9538 18.4016 14.6517C17.6984 16.3495 16.3494 17.6984 14.6516 18.4017C12.9538 19.1049 11.0461 19.1049 9.34832 18.4017C7.6505 17.6984 6.30159 16.3495 5.59833 14.6517C4.89506 12.9538 4.89506 11.0462 5.59833 9.34835C6.30159 7.65053 7.6505 6.30161 9.34832 5.59835Z" stroke="#5A5A5A" stroke-linecap="round" stroke-linejoin="round"/>
<path d="M12.0024 7.01105L12 3.6L11.9976 7.01105C11.9992 7.01105 12.0008 7.01105 12.0024 7.01105Z" stroke="#5A5A5A" stroke-linecap="round" stroke-linejoin="round"/>
<path d="M16.9889 11.9976C16.9889 11.9992 16.9889 12.0008 16.9889 12.0024L20.4 12L16.9889 11.9976Z" stroke="#5A5A5A" stroke-linecap="round" stroke-linejoin="round"/>
<path d="M12.0024 16.9889C12.0008 16.9889 11.9992 16.9889 11.9976 16.9889L12 20.4L12.0024 16.9889Z" stroke="#5A5A5A" stroke-linecap="round" stroke-linejoin="round"/>
<path d="M7.01103 12.0024C7.01103 12.0008 7.01103 11.9992 7.01103 11.9976L3.59998 12L7.01103 12.0024Z" stroke="#5A5A5A" stroke-linecap="round" stroke-linejoin="round"/>
<path d="M10.9393 9.43934C11.6184 9.15804 12.3815 9.15804 13.0606 9.43934C13.7398 9.72064 14.2793 10.2602 14.5606 10.9393C14.8419 11.6185 14.8419 12.3815 14.5606 13.0607C14.2793 13.7398 13.7398 14.2794 13.0606 14.5607C12.3815 14.842 11.6184 14.842 10.9393 14.5607C10.2602 14.2794 9.72062 13.7398 9.43931 13.0607C9.15801 12.3815 9.15801 11.6185 9.43931 10.9393C9.72062 10.2602 10.2602 9.72064 10.9393 9.43934Z" stroke="#5A5A5A" stroke-linecap="round" stroke-linejoin="round"/>
</svg>
