<svg width="12" height="14" viewBox="0 0 12 14" fill="none" xmlns="http://www.w3.org/2000/svg">
<path d="M5.99963 -0.000244141C4.54147 0.001486 3.14353 0.581504 2.11246 1.61258C1.08138 2.64365 0.501364 4.0416 0.499634 5.49976C0.499634 10.2058 5.49963 13.7605 5.71252 13.9094C5.79672 13.9682 5.89694 13.9998 5.99963 13.9998C6.10233 13.9998 6.20255 13.9682 6.28674 13.9094C6.49963 13.7605 11.4996 10.2058 11.4996 5.49976C11.4979 4.0416 10.9179 2.64366 9.88681 1.61258C8.85573 0.581504 7.45779 0.00148583 5.99963 -0.000244141ZM6 3.49994C6.39556 3.49994 6.78224 3.61724 7.11114 3.837C7.44004 4.05676 7.69638 4.36912 7.84776 4.73457C7.99913 5.10002 8.03874 5.50216 7.96157 5.89012C7.8844 6.27808 7.69392 6.63445 7.41421 6.91415C7.13451 7.19386 6.77814 7.38434 6.39018 7.46151C6.00222 7.53868 5.60009 7.49907 5.23463 7.3477C4.86918 7.19632 4.55682 6.93998 4.33706 6.61108C4.1173 6.28218 4 5.8955 4 5.49994C3.99999 5.23729 4.05172 4.97722 4.15223 4.73456C4.25273 4.49191 4.40005 4.27143 4.58577 4.08571C4.77149 3.89999 4.99197 3.75267 5.23462 3.65216C5.47728 3.55166 5.73735 3.49993 6 3.49994Z" fill="#32B768"/>
</svg>
