<svg width="24" height="24" viewBox="0 0 24 24" fill="none" xmlns="http://www.w3.org/2000/svg">
<path d="M7.79998 21.6C7.13723 21.6 6.59998 21.0627 6.59998 20.4L6.59998 6C6.59998 5.33726 7.13723 4.8 7.79998 4.8L16.2 4.8C16.8627 4.8 17.4 5.33726 17.4 6L17.4 20.4C17.4 21.0627 16.8627 21.6 16.2 21.6H7.79998Z" fill="#C2CCDE" fill-opacity="0.25"/>
<path d="M14.4 2.4L9.59996 2.4M10.2 16.2L13.8 13.2H10.2L13.8 10.2M17.4 20.4L17.4 6C17.4 5.33726 16.8627 4.8 16.2 4.8L7.79998 4.8C7.13723 4.8 6.59998 5.33726 6.59998 6L6.59998 20.4C6.59998 21.0627 7.13723 21.6 7.79998 21.6H16.2C16.8627 21.6 17.4 21.0627 17.4 20.4Z" stroke="#414141" stroke-linecap="round" stroke-linejoin="round"/>
</svg>
