<svg width="24" height="24" viewBox="0 0 24 24" fill="none" xmlns="http://www.w3.org/2000/svg">
<path d="M10.1265 17.1C9.99377 17.3763 9.92159 17.683 9.92159 18C9.92159 18.7426 10.3177 19.4287 10.9608 19.8C11.6039 20.1713 12.3962 20.1713 13.0393 19.8C13.6824 19.4287 14.0785 18.7426 14.0785 18C14.0785 17.683 14.0063 17.3763 13.8736 17.1H10.1265Z" fill="#C2CCDE" fill-opacity="0.25"/>
<path d="M11.8883 5.1C10.6152 5.1 9.39434 5.60571 8.49416 6.50589L8.30594 6.69411C7.40576 7.59429 6.90005 8.81519 6.90005 10.0882V10.9697C6.90005 12.5899 6.25639 14.1438 5.11069 15.2895C4.91179 15.4884 4.80005 15.7582 4.80005 16.0395C4.80005 16.6252 5.27488 17.1 5.86061 17.1H18.1395C18.7252 17.1 19.2 16.6252 19.2 16.0395C19.2 15.7582 19.0883 15.4884 18.8894 15.2895C17.7437 14.1438 17.1 12.5899 17.1 10.9697V10.0882C17.1 8.81519 16.5943 7.59429 15.6942 6.69411L15.5059 6.50589C14.6058 5.60571 13.3849 5.1 12.1118 5.1H11.8883Z" fill="#C2CCDE" fill-opacity="0.25"/>
<path d="M12.6 5.12488V4.2C12.6 3.86863 12.3314 3.6 12 3.6C11.6687 3.6 11.4 3.86863 11.4 4.2V5.12488C11.5615 5.10837 11.7245 5.1 11.8883 5.1H12.1118C12.2756 5.1 12.4386 5.10837 12.6 5.12488Z" fill="#C2CCDE" fill-opacity="0.25"/>
<path d="M11.8883 5.1C10.6152 5.1 9.39434 5.60571 8.49416 6.50589L8.30594 6.69411C7.40576 7.59429 6.90005 8.81519 6.90005 10.0882V10.9697C6.90005 12.5899 6.2564 14.1438 5.11069 15.2895C4.91179 15.4884 4.80005 15.7582 4.80005 16.0395C4.80005 16.6252 5.27488 17.1 5.86061 17.1H18.1395C18.7252 17.1 19.2 16.6252 19.2 16.0395C19.2 15.7582 19.0883 15.4884 18.8894 15.2895C17.7437 14.1438 17.1 12.5899 17.1 10.9697V10.0882C17.1 8.81519 16.5943 7.59429 15.6942 6.69411L15.5059 6.50589C14.6058 5.60571 13.3849 5.1 12.1118 5.1M11.8883 5.1H12.1118M11.8883 5.1C11.7245 5.1 11.5615 5.10837 11.4 5.12488V4.2C11.4 3.86863 11.6687 3.6 12 3.6C12.3314 3.6 12.6 3.86863 12.6 4.2V5.12488C12.4386 5.10837 12.2756 5.1 12.1118 5.1M9.92159 18C9.92159 17.683 9.99377 17.3763 10.1265 17.1H13.8736C14.0063 17.3763 14.0785 17.683 14.0785 18C14.0785 18.7426 13.6824 19.4287 13.0393 19.8C12.3962 20.1713 11.6039 20.1713 10.9608 19.8C10.3177 19.4287 9.92159 18.7426 9.92159 18Z" stroke="#414141" stroke-linecap="round" stroke-linejoin="round"/>
</svg>
