<svg width="25" height="25" viewBox="0 0 25 25" fill="none" xmlns="http://www.w3.org/2000/svg">
<mask id="mask0_291_7012" style="mask-type:luminance" maskUnits="userSpaceOnUse" x="2" y="2" width="19" height="19">
<path d="M19.875 12.4306V18.9444C19.875 19.1912 19.777 19.4279 19.6024 19.6024C19.4279 19.777 19.1912 19.875 18.9444 19.875H4.05556C3.80876 19.875 3.57207 19.777 3.39755 19.6024C3.22304 19.4279 3.125 19.1912 3.125 18.9444V4.05556C3.125 3.80876 3.22304 3.57207 3.39755 3.39755C3.57207 3.22304 3.80876 3.125 4.05556 3.125H10.5694" fill="#C2CCDE" fill-opacity="0.25"/>
<path d="M19.875 12.4306V18.9444C19.875 19.1912 19.777 19.4279 19.6024 19.6024C19.4279 19.777 19.1912 19.875 18.9444 19.875H4.05556C3.80876 19.875 3.57207 19.777 3.39755 19.6024C3.22304 19.4279 3.125 19.1912 3.125 18.9444V4.05556C3.125 3.80876 3.22304 3.57207 3.39755 3.39755C3.57207 3.22304 3.80876 3.125 4.05556 3.125H10.5694" stroke="white" stroke-linecap="round" stroke-linejoin="round"/>
<path d="M6.84717 12.7655V16.1528H10.2516L19.8749 6.52525L16.4761 3.125L6.84717 12.7655Z" fill="#C2CCDE" fill-opacity="0.25" stroke="white" stroke-linejoin="round"/>
</mask>
<g mask="url(#mask0_291_7012)">
<path d="M0.333374 0.333344H22.6667V22.6667H0.333374V0.333344Z" fill="#414141"/>
</g>
</svg>
