<svg width="24" height="24" viewBox="0 0 24 24" fill="none" xmlns="http://www.w3.org/2000/svg">
<path d="M8.71628 5.18134C10.7914 4.18203 13.2086 4.18203 15.2837 5.18134C17.3587 6.18065 18.8659 8.07051 19.3784 10.3159C19.8909 12.5614 19.353 14.918 17.917 16.7187C16.481 18.5193 14.3031 19.5681 12 19.5681C9.6968 19.5681 7.51896 18.5194 6.08296 16.7187C4.64696 14.918 4.10908 12.5614 4.62158 10.3159C5.13408 8.07051 6.64119 6.18065 8.71628 5.18134Z" fill="#C2CCDE" fill-opacity="0.25"/>
<path d="M9.89997 10.2C9.89997 10.5314 9.63134 10.8 9.29997 10.8C8.9686 10.8 8.69997 10.5314 8.69997 10.2C8.69997 9.86863 8.9686 9.6 9.29997 9.6C9.63134 9.6 9.89997 9.86863 9.89997 10.2Z" fill="#C2CCDE" fill-opacity="0.25"/>
<path d="M15.3 10.2C15.3 10.5314 15.0313 10.8 14.7 10.8C14.3686 10.8 14.1 10.5314 14.1 10.2C14.1 9.86863 14.3686 9.6 14.7 9.6C15.0313 9.6 15.3 9.86863 15.3 10.2Z" fill="#C2CCDE" fill-opacity="0.25"/>
<path d="M15.182 15.182C14.338 16.0259 13.1934 16.5 12 16.5C10.8065 16.5 9.6619 16.0259 8.81799 15.182M4.62158 10.3159C5.13408 8.07051 6.64119 6.18065 8.71628 5.18134C10.7914 4.18203 13.2086 4.18203 15.2837 5.18134C17.3587 6.18065 18.8659 8.07051 19.3784 10.3159C19.8909 12.5614 19.353 14.918 17.917 16.7187C16.481 18.5193 14.3031 19.5681 12 19.5681C9.6968 19.5681 7.51896 18.5193 6.08296 16.7187C4.64696 14.918 4.10908 12.5614 4.62158 10.3159ZM9.89997 10.2C9.89997 10.5314 9.63134 10.8 9.29997 10.8C8.9686 10.8 8.69997 10.5314 8.69997 10.2C8.69997 9.86863 8.9686 9.6 9.29997 9.6C9.63134 9.6 9.89997 9.86863 9.89997 10.2ZM15.3 10.2C15.3 10.5314 15.0313 10.8 14.7 10.8C14.3686 10.8 14.1 10.5314 14.1 10.2C14.1 9.86863 14.3686 9.6 14.7 9.6C15.0313 9.6 15.3 9.86863 15.3 10.2Z" stroke="#414141" stroke-linecap="round" stroke-linejoin="round"/>
</svg>
