<svg width="24" height="24" viewBox="0 0 24 24" fill="none" xmlns="http://www.w3.org/2000/svg">
<path d="M18 21H6.00005C5.33731 21 4.80005 20.4627 4.80005 19.8C4.80005 17.8151 6.03149 16.0385 7.89014 15.3418L8.25916 15.2035C10.6712 14.2995 13.3289 14.2995 15.7409 15.2035L16.11 15.3418C17.9686 16.0385 19.2 17.8151 19.2 19.8C19.2 20.4627 18.6628 21 18 21Z" fill="#C2CCDE" fill-opacity="0.25"/>
<path d="M10.1705 11.6602C11.3189 12.2501 12.6812 12.2501 13.8296 11.6602C14.8984 11.1112 15.6641 10.1113 15.9155 8.93633L15.9826 8.62276C16.2397 7.42126 15.9651 6.16728 15.2294 5.18321L15.1216 5.03911C14.3858 4.05489 13.2289 3.47535 12 3.47535C10.7712 3.47535 9.61428 4.0549 8.87846 5.03911L8.77072 5.18321C8.035 6.16728 7.76038 7.42126 8.01748 8.62276L8.08457 8.93633C8.33598 10.1113 9.10172 11.1112 10.1705 11.6602Z" fill="#C2CCDE" fill-opacity="0.25"/>
<path d="M18 21H6.00005C5.33731 21 4.80005 20.4627 4.80005 19.8C4.80005 17.8151 6.03149 16.0385 7.89014 15.3418L8.25916 15.2035C10.6712 14.2995 13.3289 14.2995 15.7409 15.2035L16.11 15.3418C17.9686 16.0385 19.2 17.8151 19.2 19.8C19.2 20.4627 18.6628 21 18 21Z" stroke="#414141" stroke-linecap="round" stroke-linejoin="round"/>
<path d="M10.1705 11.6602C11.3189 12.2501 12.6812 12.2501 13.8296 11.6602C14.8984 11.1112 15.6641 10.1113 15.9155 8.93633L15.9826 8.62276C16.2397 7.42126 15.9651 6.16728 15.2294 5.18321L15.1216 5.03911C14.3858 4.05489 13.2289 3.47535 12 3.47535C10.7712 3.47535 9.61428 4.0549 8.87846 5.03911L8.77072 5.18321C8.035 6.16728 7.76038 7.42126 8.01748 8.62276L8.08457 8.93633C8.33598 10.1113 9.10172 11.1112 10.1705 11.6602Z" stroke="#414141" stroke-linecap="round" stroke-linejoin="round"/>
</svg>
