<svg width="24" height="24" viewBox="0 0 24 24" fill="none" xmlns="http://www.w3.org/2000/svg">
<path d="M18 21L6.00005 21C5.33731 21 4.80005 20.4627 4.80005 19.8C4.80005 17.8151 6.03149 16.0385 7.89014 15.3418L8.25916 15.2035C10.6712 14.2995 13.3289 14.2995 15.7409 15.2035L16.11 15.3418C17.9686 16.0385 19.2 17.8151 19.2 19.8C19.2 20.4627 18.6628 21 18 21Z" fill="#32B768" stroke="#32B768" stroke-linecap="square" stroke-linejoin="round"/>
<path d="M9.60499 10.0453C10.902 11.4288 13.098 11.4288 14.395 10.0453C15.5789 8.78252 15.5789 6.81748 14.395 5.55468C13.098 4.17122 10.902 4.17122 9.60499 5.55468C8.42111 6.81748 8.42111 8.78252 9.60499 10.0453Z" fill="#32B768" stroke="#32B768" stroke-width="4" stroke-linecap="round" stroke-linejoin="round"/>
</svg>
