<svg width="24" height="24" viewBox="0 0 24 24" fill="none" xmlns="http://www.w3.org/2000/svg">
<path d="M3.59998 6.6V17.4C3.59998 18.3941 4.40586 19.2 5.39998 19.2H18.6C19.5941 19.2 20.4 18.3941 20.4 17.4V9C20.4 8.00589 19.5941 7.2 18.6 7.2H18V6.6C18 5.60589 17.1941 4.8 16.2 4.8H5.39998C4.40586 4.8 3.59998 5.60589 3.59998 6.6Z" fill="#C2CCDE" fill-opacity="0.25"/>
<path d="M15.6 12.9C15.6 12.2373 16.1372 11.7 16.8 11.7C17.4627 11.7 18 12.2373 18 12.9C18 13.5627 17.4627 14.1 16.8 14.1C16.1372 14.1 15.6 13.5627 15.6 12.9Z" fill="#C2CCDE" fill-opacity="0.25"/>
<path d="M18 7.2V6.6C18 5.60589 17.1941 4.8 16.2 4.8H5.39998C4.40586 4.8 3.59998 5.60589 3.59998 6.6V17.4C3.59998 18.3941 4.40586 19.2 5.39998 19.2H18.6C19.5941 19.2 20.4 18.3941 20.4 17.4V9C20.4 8.00589 19.5941 7.2 18.6 7.2H18ZM18 7.2H6.74998M16.8 14.1C16.1372 14.1 15.6 13.5627 15.6 12.9C15.6 12.2373 16.1372 11.7 16.8 11.7C17.4627 11.7 18 12.2373 18 12.9C18 13.5627 17.4627 14.1 16.8 14.1Z" stroke="#414141" stroke-linecap="round" stroke-linejoin="round"/>
</svg>
